<mxfile host="app.diagrams.net" agent="Mozilla/5.0 (Macintosh; Intel Mac OS X 10_15_7) AppleWebKit/537.36 (KHTML, like Gecko) Chrome/127.0.0.0 Safari/537.36" version="24.8.0">
  <diagram name="第 1 页" id="FGN5IMgod56-UmKvSxu4">
    <mxGraphModel dx="1084" dy="919" grid="1" gridSize="10" guides="1" tooltips="1" connect="1" arrows="1" fold="1" page="1" pageScale="1" pageWidth="827" pageHeight="1169" math="0" shadow="0">
      <root>
        <mxCell id="0" />
        <mxCell id="1" parent="0" />
        <mxCell id="7hZrR6VcFkP1mu-DPHZN-1" value="开始" style="whiteSpace=wrap;strokeWidth=2;" vertex="1" parent="1">
          <mxGeometry x="174" y="20" width="92" height="49" as="geometry" />
        </mxCell>
        <mxCell id="7hZrR6VcFkP1mu-DPHZN-2" value="启动抓取任务" style="whiteSpace=wrap;strokeWidth=2;" vertex="1" parent="1">
          <mxGeometry x="142" y="119" width="156" height="49" as="geometry" />
        </mxCell>
        <mxCell id="7hZrR6VcFkP1mu-DPHZN-3" value="抓取新闻数据" style="whiteSpace=wrap;strokeWidth=2;" vertex="1" parent="1">
          <mxGeometry x="142" y="217" width="156" height="49" as="geometry" />
        </mxCell>
        <mxCell id="7hZrR6VcFkP1mu-DPHZN-4" value="抓取结果" style="rhombus;strokeWidth=2;whiteSpace=wrap;" vertex="1" parent="1">
          <mxGeometry x="164" y="316" width="113" height="113" as="geometry" />
        </mxCell>
        <mxCell id="7hZrR6VcFkP1mu-DPHZN-5" value="保存数据到数据库" style="whiteSpace=wrap;strokeWidth=2;" vertex="1" parent="1">
          <mxGeometry x="20" y="501" width="188" height="49" as="geometry" />
        </mxCell>
        <mxCell id="7hZrR6VcFkP1mu-DPHZN-6" value="记录错误日志" style="whiteSpace=wrap;strokeWidth=2;" vertex="1" parent="1">
          <mxGeometry x="249" y="599" width="156" height="49" as="geometry" />
        </mxCell>
        <mxCell id="7hZrR6VcFkP1mu-DPHZN-7" value="通知AI处理服务" style="whiteSpace=wrap;strokeWidth=2;" vertex="1" parent="1">
          <mxGeometry x="29" y="599" width="170" height="49" as="geometry" />
        </mxCell>
        <mxCell id="7hZrR6VcFkP1mu-DPHZN-8" value="结束" style="whiteSpace=wrap;strokeWidth=2;" vertex="1" parent="1">
          <mxGeometry x="174" y="698" width="92" height="49" as="geometry" />
        </mxCell>
        <mxCell id="7hZrR6VcFkP1mu-DPHZN-9" value="" style="curved=1;startArrow=none;endArrow=block;exitX=0.51;exitY=0.99;entryX=0.5;entryY=-0.01;rounded=0;" edge="1" parent="1" source="7hZrR6VcFkP1mu-DPHZN-1" target="7hZrR6VcFkP1mu-DPHZN-2">
          <mxGeometry relative="1" as="geometry">
            <Array as="points" />
          </mxGeometry>
        </mxCell>
        <mxCell id="7hZrR6VcFkP1mu-DPHZN-10" value="" style="curved=1;startArrow=none;endArrow=block;exitX=0.5;exitY=0.98;entryX=0.5;entryY=0;rounded=0;" edge="1" parent="1" source="7hZrR6VcFkP1mu-DPHZN-2" target="7hZrR6VcFkP1mu-DPHZN-3">
          <mxGeometry relative="1" as="geometry">
            <Array as="points" />
          </mxGeometry>
        </mxCell>
        <mxCell id="7hZrR6VcFkP1mu-DPHZN-11" value="" style="curved=1;startArrow=none;endArrow=block;exitX=0.5;exitY=0.99;entryX=0.5;entryY=0;rounded=0;" edge="1" parent="1" source="7hZrR6VcFkP1mu-DPHZN-3" target="7hZrR6VcFkP1mu-DPHZN-4">
          <mxGeometry relative="1" as="geometry">
            <Array as="points" />
          </mxGeometry>
        </mxCell>
        <mxCell id="7hZrR6VcFkP1mu-DPHZN-12" value="成功" style="curved=1;startArrow=none;endArrow=block;exitX=0;exitY=0.93;entryX=0.5;entryY=-0.01;rounded=0;" edge="1" parent="1" source="7hZrR6VcFkP1mu-DPHZN-4" target="7hZrR6VcFkP1mu-DPHZN-5">
          <mxGeometry relative="1" as="geometry">
            <Array as="points">
              <mxPoint x="114" y="464" />
            </Array>
          </mxGeometry>
        </mxCell>
        <mxCell id="7hZrR6VcFkP1mu-DPHZN-13" value="失败" style="curved=1;startArrow=none;endArrow=block;exitX=1;exitY=0.93;entryX=0.5;entryY=0;rounded=0;" edge="1" parent="1" source="7hZrR6VcFkP1mu-DPHZN-4" target="7hZrR6VcFkP1mu-DPHZN-6">
          <mxGeometry relative="1" as="geometry">
            <Array as="points">
              <mxPoint x="327" y="464" />
            </Array>
          </mxGeometry>
        </mxCell>
        <mxCell id="7hZrR6VcFkP1mu-DPHZN-14" value="" style="curved=1;startArrow=none;endArrow=block;exitX=0.5;exitY=0.98;entryX=0.5;entryY=0;rounded=0;" edge="1" parent="1" source="7hZrR6VcFkP1mu-DPHZN-5" target="7hZrR6VcFkP1mu-DPHZN-7">
          <mxGeometry relative="1" as="geometry">
            <Array as="points" />
          </mxGeometry>
        </mxCell>
        <mxCell id="7hZrR6VcFkP1mu-DPHZN-15" value="" style="curved=1;startArrow=none;endArrow=block;exitX=0.5;exitY=0.99;entryX=0.01;entryY=0.05;rounded=0;" edge="1" parent="1" source="7hZrR6VcFkP1mu-DPHZN-7" target="7hZrR6VcFkP1mu-DPHZN-8">
          <mxGeometry relative="1" as="geometry">
            <Array as="points">
              <mxPoint x="114" y="673" />
            </Array>
          </mxGeometry>
        </mxCell>
        <mxCell id="7hZrR6VcFkP1mu-DPHZN-16" value="" style="curved=1;startArrow=none;endArrow=block;exitX=0.5;exitY=0.99;entryX=1.01;entryY=0.05;rounded=0;" edge="1" parent="1" source="7hZrR6VcFkP1mu-DPHZN-6" target="7hZrR6VcFkP1mu-DPHZN-8">
          <mxGeometry relative="1" as="geometry">
            <Array as="points">
              <mxPoint x="327" y="673" />
            </Array>
          </mxGeometry>
        </mxCell>
      </root>
    </mxGraphModel>
  </diagram>
</mxfile>
